<?xml version="1.0" encoding="UTF-8" standalone="no"?>
<svg
   xmlns:dc="http://purl.org/dc/elements/1.1/"
   xmlns:cc="http://creativecommons.org/ns#"
   xmlns:rdf="http://www.w3.org/1999/02/22-rdf-syntax-ns#"
   xmlns:svg="http://www.w3.org/2000/svg"
   xmlns="http://www.w3.org/2000/svg"
   xmlns:sodipodi="http://sodipodi.sourceforge.net/DTD/sodipodi-0.dtd"
   xmlns:inkscape="http://www.inkscape.org/namespaces/inkscape"
   width="174.81978mm"
   height="147.06297mm"
   viewBox="0 0 174.81978 147.06297"
   version="1.1"
   id="svg8"
   sodipodi:docname="logo.svg"
   inkscape:version="1.0.2-2 (e86c870879, 2021-01-15)">
  <defs
     id="defs2">
    <marker
       style="overflow:visible"
       id="Arrow1Lstart"
       refX="0.0"
       refY="0.0"
       orient="auto"
       inkscape:stockid="Arrow1Lstart"
       inkscape:isstock="true">
      <path
         transform="scale(0.8) translate(12.5,0)"
         style="fill-rule:evenodd;stroke:#000000;stroke-width:1.0pt"
         d="M 0.0,0.0 L 5.0,-5.0 L -12.5,0.0 L 5.0,5.0 L 0.0,0.0 z "
         id="path1773" />
    </marker>
    <clipPath
       clipPathUnits="userSpaceOnUse"
       id="clipPath849">
      <path
         d="M 0,595.276 H 595.276 V 0 H 0 Z"
         id="path847" />
    </clipPath>
    <clipPath
       clipPathUnits="userSpaceOnUse"
       id="clipPath849-7">
      <path
         d="M 0,595.276 H 595.276 V 0 H 0 Z"
         id="path847-2" />
    </clipPath>
  </defs>
  <sodipodi:namedview
     id="base"
     pagecolor="#ffffff"
     bordercolor="#666666"
     borderopacity="1.0"
     inkscape:pageopacity="0.0"
     inkscape:pageshadow="2"
     inkscape:zoom="0.7"
     inkscape:cx="1553.9151"
     inkscape:cy="711.04267"
     inkscape:document-units="mm"
     inkscape:current-layer="layer1"
     inkscape:document-rotation="0"
     showgrid="false"
     inkscape:snap-bbox="true"
     inkscape:bbox-nodes="true"
     inkscape:snap-bbox-edge-midpoints="true"
     inkscape:snap-bbox-midpoints="true"
     inkscape:bbox-paths="true"
     inkscape:snap-intersection-paths="true"
     inkscape:object-paths="true"
     inkscape:snap-smooth-nodes="true"
     inkscape:snap-midpoints="true"
     inkscape:snap-object-midpoints="true"
     inkscape:snap-center="true"
     inkscape:snap-text-baseline="true"
     inkscape:window-width="1920"
     inkscape:window-height="986"
     inkscape:window-x="-11"
     inkscape:window-y="-11"
     inkscape:window-maximized="1" />
  <metadata
     id="metadata5">
    <rdf:RDF>
      <cc:Work
         rdf:about="">
        <dc:format>image/svg+xml</dc:format>
        <dc:type
           rdf:resource="http://purl.org/dc/dcmitype/StillImage" />
      </cc:Work>
    </rdf:RDF>
  </metadata>
  <g
     inkscape:label="Layer 1"
     inkscape:groupmode="layer"
     id="layer1"
     transform="translate(163.76108,84.870769)">
    <rect
       style="fill:#ff0000;fill-opacity:1;stroke-width:0.296457;stroke-linecap:round;stroke-linejoin:round"
       id="rect1289"
       width="185.20833"
       height="185.20833"
       x="115.68896"
       y="3.6433775"
       inkscape:export-filename="D:\logo.png"
       inkscape:export-xdpi="96"
       inkscape:export-ydpi="96" />
    <g
       id="g851"
       transform="matrix(0.35277779,0,0,-0.35279251,205.88756,67.031099)">
      <path
         d="m 0,0 c -15.327,9.303 -37.154,7.76 -45.861,-2.802 27.27,21.749 66.992,-4.962 57.976,-37.894 -4.829,-17.642 -23.236,-27.857 -42.072,-23.04 -21.244,5.411 -32.44,27.248 -24.094,52.765 -20.8,-33.617 14.597,-70.984 47.226,-60.996 11.012,3.377 21.815,12.862 25.178,26.799 C 22.788,-26.733 12.887,-7.823 0,0"
         style="fill:#1b1a1a;fill-opacity:1;fill-rule:evenodd;stroke:none"
         id="path853" />
    </g>
    <path
       id="path857"
       style="fill:#ffffff;fill-opacity:1;fill-rule:evenodd;stroke:none;stroke-width:0.352784"
       d="m 207.64145,22.715747 c -30.11458,0.266198 -58.19926,19.159446 -68.73483,49.220758 -5.21301,14.872673 -5.34443,30.286455 -1.33686,44.373815 8.37742,-6.81665 14.1765,-13.17172 23.71172,-17.101467 0.86608,-2.375 1.55712,-3.704032 2.18437,-6.796257 0.0268,-0.621974 1.88585,1.061434 2.09857,-0.50955 0.49707,-3.668339 -0.34388,-10.643 -2.25205,-14.797132 -1.69088,-3.690562 -1.55983,-7.86225 -0.83767,-12.182195 0.61595,-3.691618 1.07172,-8.630915 2.99153,-10.083009 0.25048,-1.149044 0.13166,1.0237 0.92295,0.01963 3.53518,2.608194 6.75759,5.386213 10.21024,8.04274 0.36436,2.225408 3.21514,3.510591 5.30924,2.324502 0.055,-0.01482 0.11647,-0.04928 0.17362,-0.0708 0.26564,1.429162 2.70748,2.648447 3.84059,3.92344 1.61925,-1.014984 3.05062,-2.354024 4.26384,-4.078473 -1.91384,-0.970181 -2.05989,-3.487407 -4.62246,-3.775641 0.85654,-2.022559 0.67379,-4.129974 -2.35905,-4.5565 -2.3001,-3.632352 -5.21753,-6.909591 -7.62278,-10.481968 0.357,-1.209019 -0.14563,-1.927072 -0.0532,-2.986505 2.38162,-3.731488 1.52503,-3.821572 5.71179,-5.081041 10.12614,-3.048127 17.42684,-3.291993 25.78344,-0.988612 7.09613,1.958353 10.90975,4.478117 8.70593,7.991579 3.03107,2.392991 2.42067,2.384646 6.14071,7.859279 1.62701,2.39899 4.14005,3.525857 3.70367,8.295965 2.56646,3.410092 9.22224,6.005491 12.01269,8.713527 0.5147,0.495673 0.45157,1.76906 0.19122,2.499695 -0.52176,1.446802 -2.5332,2.068887 -3.51039,3.236629 -0.82161,0.982527 -0.37174,2.20813 -0.22429,3.741013 0.12666,1.316622 0.49096,2.710145 0.32764,3.256268 -0.26281,0.877395 -0.8268,0.70889 -1.62161,1.236669 -0.005,0.282939 0.26787,1.045436 0.28268,1.935878 -0.75671,0.997698 -2.39366,0.448281 -3.17966,1.401525 0.29105,1.116588 0.003,0.778267 -0.019,2.072311 0.83715,1.044973 2.56226,1.459696 3.84318,1.925028 0.91758,1.893792 -0.36224,3.103615 -0.68574,5.059855 -0.41982,2.5401 1.06793,4.657707 0.79065,6.682037 -0.65582,4.78068 -4.87288,2.12728 -8.28426,2.80253 -14.97605,2.95428 -11.82685,3.40657 -17.32349,6.90839 -4.40653,2.80928 -7.0222,5.35765 -10.20144,10.15174 0.51012,2.80576 0.51234,1.39828 1.92133,3.88159 1.21886,2.15062 -0.96314,5.75731 -0.33589,7.50786 2.37313,6.60358 6.15921,28.0116 3.6499,35.31405 32.22379,2.24941 63.25968,-17.071 74.46108,-49.028 13.42991,-38.321034 -6.74258,-80.271886 -45.06132,-93.705168 -7.7834,-2.728132 -15.71715,-4.069761 -23.53085,-4.154442 -0.47898,-0.0052 -0.95758,-0.0057 -1.43558,-0.0016 z m 57.76649,47.227515 a 1.6470313,1.6471 0 0 1 0.64907,0.126611 c 7.40619,3.080721 12.23386,10.330443 12.22198,18.352103 -0.0119,8.021657 -4.86098,15.256614 -12.27624,18.315404 a 1.6470313,1.6471 0 0 1 -2.1513,-0.89507 1.6470313,1.6471 0 0 1 0.89453,-2.15138 c 6.19236,-2.55434 10.22924,-8.575899 10.23916,-15.27464 0.01,-6.698739 -4.00788,-12.732999 -10.19265,-15.305648 a 1.6470313,1.6471 0 0 1 -0.88987,-2.153446 1.6470313,1.6471 0 0 1 1.50532,-1.013934 z M 254.59,75.547805 a 1.6470301,1.6470988 0 0 1 0.64958,0.12558 c 5.14104,2.138488 8.49608,7.175162 8.48786,12.743423 -0.008,5.568257 -3.37619,10.592765 -8.52353,12.716032 a 1.6470301,1.6470988 0 0 1 -2.15127,-0.89507 1.6470301,1.6470988 0 0 1 0.894,-2.149827 c 3.92443,-1.61882 6.48065,-5.431481 6.48694,-9.676821 0.006,-4.245343 -2.53891,-8.066546 -6.45853,-9.696971 a 1.6470301,1.6470988 0 0 1 -0.88781,-2.152412 1.6470301,1.6470988 0 0 1 1.50276,-1.013934 z m -6.51793,5.595759 a 1.6470301,1.6470988 0 0 1 0.64955,0.126095 c 2.87589,1.19626 4.75625,4.018853 4.75165,7.133713 -0.005,3.114858 -1.89241,5.932008 -4.77179,7.119759 a 1.6470301,1.6470988 0 0 1 -2.1518,-0.894557 1.6470301,1.6470988 0 0 1 0.89503,-2.151379 c 1.65648,-0.683297 2.73,-2.286017 2.73265,-4.077958 0.003,-1.791942 -1.06683,-3.399064 -2.7213,-4.087261 a 1.6470301,1.6470988 0 0 1 -0.88778,-2.152412 1.6470301,1.6470988 0 0 1 1.50379,-1.016 z" />
    <g
       id="g1019"
       transform="matrix(0.35277779,0,0,-0.35279251,208.73872,82.381524)">
      <path
         d="m 0,0 c -6.911,-16.389 -25.799,-24.074 -42.19,-17.162 -16.389,6.911 -24.072,25.8 -17.161,42.189 6.911,16.39 25.8,24.073 42.189,17.162 C -0.772,35.278 6.911,16.39 0,0"
         style="fill:#e50b14;fill-opacity:1;fill-rule:evenodd;stroke:none"
         id="path1021" />
    </g>
  </g>
</svg>
